<svg width="36" height="24" viewBox="0 0 36 24" fill="none" xmlns="http://www.w3.org/2000/svg">
<path d="M2 14C3.10457 14 4 13.1046 4 12C4 10.8954 3.10457 10 2 10C0.89543 10 0 10.8954 0 12C0 13.1046 0.89543 14 2 14Z" fill="black"/>
<path d="M34.1199 10H9.87994C8.84164 10 7.99994 10.8417 7.99994 11.88V12.12C7.99994 13.1583 8.84164 14 9.87994 14H34.1199C35.1582 14 35.9999 13.1583 35.9999 12.12V11.88C35.9999 10.8417 35.1582 10 34.1199 10Z" fill="black"/>
<path d="M34.12 20.0001H1.88C0.841705 20.0001 0 20.8418 0 21.8801V22.1201C0 23.1584 0.841705 24.0001 1.88 24.0001H34.12C35.1583 24.0001 36 23.1584 36 22.1201V21.8801C36 20.8418 35.1583 20.0001 34.12 20.0001Z" fill="black"/>
<path d="M34.12 0H1.88C0.841705 0 0 0.841705 0 1.88V2.12C0 3.15829 0.841705 4 1.88 4H34.12C35.1583 4 36 3.15829 36 2.12V1.88C36 0.841705 35.1583 0 34.12 0Z" fill="black"/>
</svg>
