<svg width="171" height="23" viewBox="0 0 171 23" fill="none" xmlns="http://www.w3.org/2000/svg">
<g id="Group">
<g id="Group_2">
<path id="Vector" d="M19.7826 22.7147L12.2378 18.8563L4.71138 22.7325L6.13975 14.5412L0.0355835 8.75451L8.45933 7.5459L12.2134 0.0922852L15.9919 7.53919L24.4156 8.71725L18.3298 14.5226L19.7826 22.7147ZM56.4442 22.7147L48.9055 18.8563L41.3791 22.7325L42.8075 14.5412L36.7033 8.75451L45.1271 7.5459L48.8811 0.0922852L52.6596 7.53919L61.0834 8.71725L54.9975 14.5226L56.4442 22.7147ZM93.0692 22.7147L85.5305 18.8563L78.0041 22.7325L79.4325 14.5412L73.3283 8.75451L81.7521 7.5459L85.5061 0.0922852L89.2846 7.53919L97.7084 8.71725L91.6225 14.5226L93.0692 22.7147ZM129.737 22.7147L122.192 18.8563L114.666 22.7325L116.094 14.5412L109.99 8.75451L118.414 7.5459L122.168 0.0922852L125.946 7.53919L134.37 8.71725L128.284 14.5226L129.737 22.7147ZM166.319 22.7147L158.781 18.8563L151.254 22.7325L152.682 14.5412L146.578 8.75451L155.002 7.5459L158.756 0.0922852L162.535 7.53919L170.958 8.71725L164.872 14.5226L166.319 22.7147Z" fill="#F9B536"/>
</g>
</g>
</svg>
