<svg width="107" height="36" viewBox="0 0 107 36" fill="none" xmlns="http://www.w3.org/2000/svg">
<rect width="107" height="36" rx="7" fill="#A4907C"/>
<path d="M40.5852 25V11.9091H42.1705V23.5938H48.2557V25H40.5852ZM54.4943 25.2045C53.608 25.2045 52.8303 24.9936 52.1612 24.5717C51.4964 24.1499 50.9766 23.5597 50.6016 22.8011C50.2308 22.0426 50.0455 21.1562 50.0455 20.142C50.0455 19.1193 50.2308 18.2266 50.6016 17.4638C50.9766 16.701 51.4964 16.1087 52.1612 15.6868C52.8303 15.2649 53.608 15.054 54.4943 15.054C55.3807 15.054 56.1563 15.2649 56.821 15.6868C57.4901 16.1087 58.0099 16.701 58.3807 17.4638C58.7557 18.2266 58.9432 19.1193 58.9432 20.142C58.9432 21.1562 58.7557 22.0426 58.3807 22.8011C58.0099 23.5597 57.4901 24.1499 56.821 24.5717C56.1563 24.9936 55.3807 25.2045 54.4943 25.2045ZM54.4943 23.8494C55.1676 23.8494 55.7216 23.6768 56.1562 23.3317C56.5909 22.9865 56.9126 22.5327 57.1214 21.9702C57.3303 21.4077 57.4347 20.7983 57.4347 20.142C57.4347 19.4858 57.3303 18.8743 57.1214 18.3075C56.9126 17.7408 56.5909 17.2827 56.1562 16.9332C55.7216 16.5838 55.1676 16.4091 54.4943 16.4091C53.821 16.4091 53.267 16.5838 52.8324 16.9332C52.3977 17.2827 52.076 17.7408 51.8672 18.3075C51.6584 18.8743 51.554 19.4858 51.554 20.142C51.554 20.7983 51.6584 21.4077 51.8672 21.9702C52.076 22.5327 52.3977 22.9865 52.8324 23.3317C53.267 23.6768 53.821 23.8494 54.4943 23.8494ZM65.209 28.8864C64.4803 28.8864 63.8539 28.7926 63.3297 28.6051C62.8056 28.4219 62.3688 28.179 62.0194 27.8764C61.6742 27.5781 61.3993 27.2585 61.1948 26.9176L62.3965 26.0739C62.5328 26.2528 62.7054 26.4574 62.9142 26.6875C63.123 26.9219 63.4086 27.1243 63.7708 27.2947C64.1373 27.4695 64.6167 27.5568 65.209 27.5568C66.0016 27.5568 66.6557 27.3651 67.1713 26.9815C67.687 26.598 67.9448 25.9972 67.9448 25.179V23.1847H67.8169C67.7061 23.3636 67.5485 23.5852 67.3439 23.8494C67.1436 24.1094 66.8539 24.3416 66.4746 24.5462C66.0996 24.7464 65.5925 24.8466 64.9533 24.8466C64.1607 24.8466 63.449 24.6591 62.8184 24.2841C62.1919 23.9091 61.6955 23.3636 61.329 22.6477C60.9668 21.9318 60.7857 21.0625 60.7857 20.0398C60.7857 19.0341 60.9625 18.1584 61.3162 17.4126C61.6699 16.6626 62.1621 16.0831 62.7928 15.674C63.4235 15.2607 64.1522 15.054 64.9789 15.054C65.6181 15.054 66.1252 15.1605 66.5002 15.3736C66.8794 15.5824 67.1692 15.821 67.3695 16.0895C67.574 16.3537 67.7317 16.571 67.8425 16.7415H67.9959V15.1818H69.4533V25.2812C69.4533 26.125 69.2615 26.8111 68.878 27.3395C68.4988 27.8722 67.9874 28.2621 67.3439 28.5092C66.7047 28.7607 65.9931 28.8864 65.209 28.8864ZM65.1578 23.4915C65.763 23.4915 66.2743 23.353 66.6919 23.076C67.1096 22.799 67.427 22.4006 67.6444 21.8807C67.8617 21.3608 67.9703 20.7386 67.9703 20.0142C67.9703 19.3068 67.8638 18.6825 67.6507 18.1413C67.4377 17.6001 67.1223 17.1761 66.7047 16.8693C66.2871 16.5625 65.7715 16.4091 65.1578 16.4091C64.5186 16.4091 63.986 16.571 63.5598 16.8949C63.138 17.2187 62.8205 17.6534 62.6074 18.1989C62.3986 18.7443 62.2942 19.3494 62.2942 20.0142C62.2942 20.696 62.4007 21.299 62.6138 21.8232C62.8311 22.343 63.1507 22.7521 63.5726 23.0504C63.9988 23.3445 64.5272 23.4915 65.1578 23.4915ZM79.0669 11.9091V25H77.4817V11.9091H79.0669ZM83.5494 19.0938V25H82.0408V15.1818H83.4982V16.7159H83.6261C83.8562 16.2173 84.2056 15.8168 84.6744 15.5142C85.1431 15.2074 85.7482 15.054 86.4897 15.054C87.1545 15.054 87.7362 15.1903 88.2347 15.4631C88.7333 15.7315 89.1211 16.1406 89.3981 16.6903C89.6751 17.2358 89.8136 17.9261 89.8136 18.7614V25H88.305V18.8636C88.305 18.0923 88.1048 17.4915 87.7042 17.0611C87.3036 16.6264 86.7539 16.4091 86.055 16.4091C85.5735 16.4091 85.1431 16.5135 84.7638 16.7223C84.3888 16.9311 84.0927 17.2358 83.8754 17.6364C83.658 18.0369 83.5494 18.5227 83.5494 19.0938Z" fill="black"/>
<path d="M40.5852 25H40.2852V25.3H40.5852V25ZM40.5852 11.9091V11.6091H40.2852V11.9091H40.5852ZM42.1705 11.9091H42.4705V11.6091H42.1705V11.9091ZM42.1705 23.5938H41.8705V23.8937H42.1705V23.5938ZM48.2557 23.5938H48.5557V23.2938H48.2557V23.5938ZM48.2557 25V25.3H48.5557V25H48.2557ZM40.8852 25V11.9091H40.2852V25H40.8852ZM40.5852 12.2091H42.1705V11.6091H40.5852V12.2091ZM41.8705 11.9091V23.5938H42.4705V11.9091H41.8705ZM42.1705 23.8937H48.2557V23.2938H42.1705V23.8937ZM47.9557 23.5938V25H48.5557V23.5938H47.9557ZM48.2557 24.7H40.5852V25.3H48.2557V24.7ZM52.1612 24.5717L52.0005 24.825L52.0012 24.8255L52.1612 24.5717ZM50.6016 22.8011L50.332 22.9329L50.3326 22.9341L50.6016 22.8011ZM50.6016 17.4638L50.3323 17.3314L50.3317 17.3326L50.6016 17.4638ZM52.1612 15.6868L52.0012 15.433L52.0005 15.4335L52.1612 15.6868ZM56.821 15.6868L56.6603 15.9401L56.661 15.9406L56.821 15.6868ZM58.3807 17.4638L58.1109 17.5949L58.1115 17.5961L58.3807 17.4638ZM58.3807 22.8011L58.1117 22.6682L58.1112 22.6694L58.3807 22.8011ZM56.821 24.5717L56.661 24.318L56.6603 24.3184L56.821 24.5717ZM56.1562 23.3317L55.9697 23.0967L56.1562 23.3317ZM57.1214 21.9702L57.4027 22.0746L57.1214 21.9702ZM57.1214 18.3075L57.403 18.2038L57.1214 18.3075ZM56.1562 16.9332L56.3442 16.6994L56.1562 16.9332ZM52.8324 16.9332L52.6444 16.6994L52.8324 16.9332ZM51.8672 18.3075L51.5857 18.2038L51.8672 18.3075ZM51.8672 21.9702L51.5859 22.0746L51.8672 21.9702ZM52.8324 23.3317L53.019 23.0967L52.8324 23.3317ZM54.4943 24.9045C53.6575 24.9045 52.9367 24.7061 52.3212 24.318L52.0012 24.8255C52.7238 25.2811 53.5584 25.5045 54.4943 25.5045V24.9045ZM52.322 24.3184C51.7071 23.9282 51.223 23.3813 50.8705 22.6682L50.3326 22.9341C50.7301 23.7381 51.2858 24.3715 52.0005 24.825L52.322 24.3184ZM50.8711 22.6694C50.524 21.9593 50.3455 21.1197 50.3455 20.142H49.7455C49.7455 21.1928 49.9376 22.1259 50.332 22.9329L50.8711 22.6694ZM50.3455 20.142C50.3455 19.1555 50.5242 18.3093 50.8714 17.5949L50.3317 17.3326C49.9375 18.1438 49.7455 19.0831 49.7455 20.142H50.3455ZM50.8708 17.5961C51.2235 16.8788 51.7075 16.33 52.322 15.9401L52.0005 15.4335C51.2854 15.8873 50.7297 16.5232 50.3323 17.3314L50.8708 17.5961ZM52.3212 15.9406C52.9367 15.5524 53.6575 15.354 54.4943 15.354V14.754C53.5584 14.754 52.7238 14.9774 52.0012 15.433L52.3212 15.9406ZM54.4943 15.354C55.3311 15.354 56.0494 15.5524 56.6603 15.9401L56.9818 15.4335C56.2631 14.9774 55.4302 14.754 54.4943 14.754V15.354ZM56.661 15.9406C57.2793 16.3304 57.7627 16.8787 58.1109 17.5949L58.6505 17.3326C58.2572 16.5233 57.7008 15.8869 56.981 15.433L56.661 15.9406ZM58.1115 17.5961C58.4625 18.3102 58.6432 19.156 58.6432 20.142H59.2432C59.2432 19.0826 59.0489 18.1429 58.6499 17.3314L58.1115 17.5961ZM58.6432 20.142C58.6432 21.1192 58.4626 21.9584 58.1118 22.6682L58.6496 22.9341C59.0487 22.1268 59.2432 21.1933 59.2432 20.142H58.6432ZM58.1112 22.6694C57.7632 23.3814 57.2797 23.9278 56.661 24.318L56.981 24.8255C57.7004 24.3719 58.2567 23.7379 58.6502 22.9329L58.1112 22.6694ZM56.6603 24.3184C56.0494 24.7061 55.3311 24.9045 54.4943 24.9045V25.5045C55.4302 25.5045 56.2631 25.2811 56.9818 24.825L56.6603 24.3184ZM54.4943 24.1494C55.2205 24.1494 55.8445 23.9623 56.3428 23.5666L55.9697 23.0967C55.5987 23.3914 55.1148 23.5494 54.4943 23.5494V24.1494ZM56.3428 23.5666C56.8238 23.1846 57.1764 22.6841 57.4027 22.0746L56.8402 21.8658C56.6489 22.3812 56.358 22.7884 55.9697 23.0967L56.3428 23.5666ZM57.4027 22.0746C57.625 21.4757 57.7347 20.8306 57.7347 20.142H57.1347C57.1347 20.766 57.0355 21.3397 56.8402 21.8658L57.4027 22.0746ZM57.7347 20.142C57.7347 19.4535 57.625 18.8065 57.403 18.2038L56.8399 18.4112C57.0355 18.942 57.1347 19.5181 57.1347 20.142H57.7347ZM57.403 18.2038C57.177 17.5904 56.8248 17.0858 56.3442 16.6994L55.9683 17.1671C56.357 17.4796 56.6483 17.8911 56.8399 18.4112L57.403 18.2038ZM56.3442 16.6994C55.8459 16.2988 55.2213 16.1091 54.4943 16.1091V16.7091C55.1139 16.7091 55.5973 16.8688 55.9683 17.1671L56.3442 16.6994ZM54.4943 16.1091C53.7673 16.1091 53.1428 16.2988 52.6444 16.6994L53.0204 17.1671C53.3913 16.8688 53.8747 16.7091 54.4943 16.7091V16.1091ZM52.6444 16.6994C52.1639 17.0858 51.8117 17.5904 51.5857 18.2038L52.1487 18.4112C52.3403 17.8911 52.6316 17.4796 53.0204 17.1671L52.6444 16.6994ZM51.5857 18.2038C51.3636 18.8065 51.254 19.4535 51.254 20.142H51.854C51.854 19.5181 51.9531 18.942 52.1487 18.4112L51.5857 18.2038ZM51.254 20.142C51.254 20.8306 51.3636 21.4757 51.5859 22.0746L52.1484 21.8658C51.9531 21.3397 51.854 20.766 51.854 20.142H51.254ZM51.5859 22.0746C51.8122 22.6841 52.1648 23.1846 52.6458 23.5666L53.019 23.0967C52.6306 22.7884 52.3398 22.3812 52.1484 21.8658L51.5859 22.0746ZM52.6458 23.5666C53.1441 23.9623 53.7682 24.1494 54.4943 24.1494V23.5494C53.8739 23.5494 53.39 23.3914 53.019 23.0967L52.6458 23.5666ZM63.3297 28.6051L63.4308 28.3226L63.4287 28.3219L63.3297 28.6051ZM62.0194 27.8764L62.2157 27.6496L62.2155 27.6494L62.0194 27.8764ZM61.1948 26.9176L61.0224 26.6721L60.7939 26.8325L60.9375 27.072L61.1948 26.9176ZM62.3965 26.0739L62.6351 25.892L62.4602 25.6625L62.2241 25.8283L62.3965 26.0739ZM62.9142 26.6875L63.1382 26.4879L63.1364 26.4859L62.9142 26.6875ZM63.7708 27.2947L63.8999 27.0239L63.8985 27.0233L63.7708 27.2947ZM67.1713 26.9815L67.3504 27.2222L67.1713 26.9815ZM67.9448 23.1847H68.2448V22.8847H67.9448V23.1847ZM67.8169 23.1847V22.8847H67.6498L67.5619 23.0268L67.8169 23.1847ZM67.3439 23.8494L67.1067 23.6658L67.1063 23.6663L67.3439 23.8494ZM66.4746 24.5462L66.6159 24.8108L66.617 24.8102L66.4746 24.5462ZM62.8184 24.2841L62.6643 24.5415L62.665 24.542L62.8184 24.2841ZM61.329 22.6477L61.0613 22.7832L61.062 22.7844L61.329 22.6477ZM61.3162 17.4126L61.5873 17.5412L61.5876 17.5406L61.3162 17.4126ZM62.7928 15.674L62.9561 15.9257L62.9572 15.9249L62.7928 15.674ZM66.5002 15.3736L66.352 15.6344L66.3555 15.6364L66.5002 15.3736ZM67.3695 16.0895L67.129 16.2689L67.1323 16.2731L67.3695 16.0895ZM67.8425 16.7415L67.591 16.905L67.6797 17.0415H67.8425V16.7415ZM67.9959 16.7415V17.0415H68.2959V16.7415H67.9959ZM67.9959 15.1818V14.8818H67.6959V15.1818H67.9959ZM69.4533 15.1818H69.7533V14.8818H69.4533V15.1818ZM68.878 27.3395L68.6352 27.1633L68.6336 27.1655L68.878 27.3395ZM67.3439 28.5092L67.2364 28.2292L67.2341 28.2301L67.3439 28.5092ZM66.6919 23.076L66.5261 22.826L66.6919 23.076ZM67.6444 21.8807L67.9211 21.9964L67.6444 21.8807ZM67.6507 18.1413L67.9299 18.0314V18.0314L67.6507 18.1413ZM66.7047 16.8693L66.5271 17.1111L66.7047 16.8693ZM63.5598 16.8949L63.3783 16.656L63.3772 16.6569L63.5598 16.8949ZM62.6074 18.1989L62.328 18.0897L62.3272 18.0916L62.6074 18.1989ZM62.6138 21.8232L62.3359 21.9361L62.337 21.9389L62.6138 21.8232ZM63.5726 23.0504L63.3994 23.2954L63.4022 23.2973L63.5726 23.0504ZM65.209 28.5864C64.5047 28.5864 63.9142 28.4956 63.4308 28.3226L63.2287 28.8876C63.7935 29.0896 64.4559 29.1864 65.209 29.1864V28.5864ZM63.4287 28.3219C62.9333 28.1487 62.5314 27.923 62.2157 27.6496L61.823 28.1032C62.2062 28.435 62.6779 28.695 63.2307 28.8883L63.4287 28.3219ZM62.2155 27.6494C61.8909 27.3689 61.638 27.0732 61.452 26.7633L60.9375 27.072C61.1607 27.4439 61.4574 27.7873 61.8232 28.1034L62.2155 27.6494ZM61.3672 27.1631L62.5689 26.3194L62.2241 25.8283L61.0224 26.6721L61.3672 27.1631ZM62.1579 26.2557C62.301 26.4435 62.4795 26.6548 62.6921 26.8891L63.1364 26.4859C62.9314 26.2599 62.7647 26.0622 62.6351 25.892L62.1579 26.2557ZM62.6902 26.8871C62.9323 27.1587 63.2539 27.3831 63.643 27.5662L63.8985 27.0233C63.5632 26.8655 63.3138 26.685 63.1382 26.4879L62.6902 26.8871ZM63.6417 27.5655C64.0626 27.7662 64.5909 27.8568 65.209 27.8568V27.2568C64.6424 27.2568 64.2119 27.1727 63.8999 27.0239L63.6417 27.5655ZM65.209 27.8568C66.0508 27.8568 66.7719 27.6525 67.3504 27.2222L66.9923 26.7408C66.5395 27.0776 65.9524 27.2568 65.209 27.2568V27.8568ZM67.3504 27.2222C67.9625 26.767 68.2448 26.0634 68.2448 25.179H67.6448C67.6448 25.9309 67.4115 26.429 66.9923 26.7408L67.3504 27.2222ZM68.2448 25.179V23.1847H67.6448V25.179H68.2448ZM67.9448 22.8847H67.8169V23.4847H67.9448V22.8847ZM67.5619 23.0268C67.4588 23.1933 67.3081 23.4057 67.1067 23.6658L67.5811 24.0331C67.7888 23.7648 67.9535 23.534 68.072 23.3426L67.5619 23.0268ZM67.1063 23.6663C66.9384 23.8842 66.6855 24.0916 66.3322 24.2821L66.617 24.8102C67.0223 24.5916 67.3489 24.3345 67.5816 24.0325L67.1063 23.6663ZM66.3333 24.2815C66.0182 24.4498 65.566 24.5466 64.9533 24.5466V25.1466C65.619 25.1466 66.181 25.0431 66.6159 24.8108L66.3333 24.2815ZM64.9533 24.5466C64.2102 24.5466 63.5523 24.3714 62.9717 24.0262L62.665 24.542C63.3458 24.9467 64.1112 25.1466 64.9533 25.1466V24.5466ZM62.9725 24.0267C62.3991 23.6834 61.9396 23.1822 61.5961 22.511L61.062 22.7844C61.4514 23.5451 61.9848 24.1347 62.6643 24.5415L62.9725 24.0267ZM61.5967 22.5123C61.2608 21.8483 61.0857 21.028 61.0857 20.0398H60.4857C60.4857 21.097 60.6728 22.0153 61.0613 22.7832L61.5967 22.5123ZM61.0857 20.0398C61.0857 19.069 61.2564 18.239 61.5873 17.5412L61.0452 17.2841C60.6687 18.0778 60.4857 18.9992 60.4857 20.0398H61.0857ZM61.5876 17.5406C61.92 16.8357 62.377 16.3013 62.956 15.9257L62.6295 15.4223C61.9473 15.8649 61.4199 16.4896 61.0449 17.2847L61.5876 17.5406ZM62.9572 15.9249C63.5344 15.5467 64.2047 15.354 64.9789 15.354V14.754C64.0996 14.754 63.3126 14.9746 62.6283 15.4231L62.9572 15.9249ZM64.9789 15.354C65.5894 15.354 66.0388 15.4565 66.352 15.6344L66.6484 15.1127C66.2116 14.8645 65.6468 14.754 64.9789 14.754V15.354ZM66.3555 15.6364C66.7078 15.8303 66.9607 16.0432 67.129 16.2689L67.61 15.9101C67.3777 15.5988 67.0511 15.3344 66.6449 15.1108L66.3555 15.6364ZM67.1323 16.2731C67.3345 16.5344 67.4866 16.7444 67.591 16.905L68.094 16.578C67.9768 16.3977 67.8135 16.173 67.6067 15.9058L67.1323 16.2731ZM67.8425 17.0415H67.9959V16.4415H67.8425V17.0415ZM68.2959 16.7415V15.1818H67.6959V16.7415H68.2959ZM67.9959 15.4818H69.4533V14.8818H67.9959V15.4818ZM69.1533 15.1818V25.2812H69.7533V15.1818H69.1533ZM69.1533 25.2812C69.1533 26.0802 68.972 26.6993 68.6352 27.1633L69.1208 27.5157C69.5511 26.9229 69.7533 26.1698 69.7533 25.2812H69.1533ZM68.6336 27.1655C68.2905 27.6475 67.8279 28.002 67.2364 28.2292L67.4515 28.7893C68.1469 28.5222 68.707 28.0969 69.1224 27.5135L68.6336 27.1655ZM67.2341 28.2301C66.6345 28.4659 65.9608 28.5864 65.209 28.5864V29.1864C66.0254 29.1864 66.775 29.0554 67.4537 28.7884L67.2341 28.2301ZM65.1578 23.7915C65.8096 23.7915 66.3816 23.6418 66.8578 23.326L66.5261 22.826C66.1671 23.0641 65.7164 23.1915 65.1578 23.1915V23.7915ZM66.8578 23.326C67.3308 23.0122 67.6839 22.564 67.9211 21.9964L67.3676 21.765C67.1702 22.2372 66.8883 22.5858 66.5261 22.826L66.8578 23.326ZM67.9211 21.9964C68.1575 21.431 68.2703 20.7675 68.2703 20.0142H67.6703C67.6703 20.7098 67.5659 21.2906 67.3676 21.765L67.9211 21.9964ZM68.2703 20.0142C68.2703 19.2771 68.1594 18.6143 67.9299 18.0314L67.3716 18.2512C67.5683 18.7508 67.6703 19.3365 67.6703 20.0142H68.2703ZM67.9299 18.0314C67.6987 17.4442 67.351 16.9719 66.8823 16.6276L66.5271 17.1111C66.8937 17.3804 67.1766 17.7561 67.3716 18.2512L67.9299 18.0314ZM66.8823 16.6276C66.4043 16.2763 65.8233 16.1091 65.1578 16.1091V16.7091C65.7197 16.7091 66.17 16.8487 66.5271 17.1111L66.8823 16.6276ZM65.1578 16.1091C64.4662 16.1091 63.8662 16.2852 63.3783 16.656L63.7414 17.1337C64.1057 16.8568 64.5711 16.7091 65.1578 16.7091V16.1091ZM63.3772 16.6569C62.9076 17.0174 62.5589 17.4986 62.328 18.0897L62.8869 18.308C63.0821 17.8082 63.3683 17.4201 63.7425 17.1329L63.3772 16.6569ZM62.3272 18.0916C62.1037 18.6757 61.9942 19.3178 61.9942 20.0142H62.5942C62.5942 19.3811 62.6936 18.8129 62.8876 18.3061L62.3272 18.0916ZM61.9942 20.0142C61.9942 20.727 62.1056 21.3696 62.3359 21.9361L62.8917 21.7102C62.6959 21.2285 62.5942 20.665 62.5942 20.0142H61.9942ZM62.337 21.9389C62.574 22.5058 62.9274 22.9617 63.3994 23.2954L63.7458 22.8055C63.3741 22.5426 63.0883 22.1803 62.8906 21.7074L62.337 21.9389ZM63.4022 23.2973C63.8885 23.6329 64.4798 23.7915 65.1578 23.7915V23.1915C64.5746 23.1915 64.109 23.056 63.743 22.8035L63.4022 23.2973ZM79.0669 11.9091H79.3669V11.6091H79.0669V11.9091ZM79.0669 25V25.3H79.3669V25H79.0669ZM77.4817 25H77.1817V25.3H77.4817V25ZM77.4817 11.9091V11.6091H77.1817V11.9091H77.4817ZM78.7669 11.9091V25H79.3669V11.9091H78.7669ZM79.0669 24.7H77.4817V25.3H79.0669V24.7ZM77.7817 25V11.9091H77.1817V25H77.7817ZM77.4817 12.2091H79.0669V11.6091H77.4817V12.2091ZM83.5494 25V25.3H83.8494V25H83.5494ZM82.0408 25H81.7408V25.3H82.0408V25ZM82.0408 15.1818V14.8818H81.7408V15.1818H82.0408ZM83.4982 15.1818H83.7982V14.8818H83.4982V15.1818ZM83.4982 16.7159H83.1982V17.0159H83.4982V16.7159ZM83.6261 16.7159V17.0159H83.818L83.8985 16.8416L83.6261 16.7159ZM84.6744 15.5142L84.8371 15.7663L84.8387 15.7652L84.6744 15.5142ZM88.2347 15.4631L88.0908 15.7263L88.0925 15.7272L88.2347 15.4631ZM89.3981 16.6903L89.1302 16.8253L89.1306 16.8262L89.3981 16.6903ZM89.8136 25V25.3H90.1136V25H89.8136ZM88.305 25H88.005V25.3H88.305V25ZM87.7042 17.0611L87.4836 17.2644L87.4846 17.2655L87.7042 17.0611ZM84.7639 16.7223L84.6192 16.4595L84.6179 16.4602L84.7639 16.7223ZM83.8754 17.6364L83.6117 17.4933L83.8754 17.6364ZM83.2494 19.0938V25H83.8494V19.0938H83.2494ZM83.5494 24.7H82.0408V25.3H83.5494V24.7ZM82.3408 25V15.1818H81.7408V25H82.3408ZM82.0408 15.4818H83.4982V14.8818H82.0408V15.4818ZM83.1982 15.1818V16.7159H83.7982V15.1818H83.1982ZM83.4982 17.0159H83.6261V16.4159H83.4982V17.0159ZM83.8985 16.8416C84.1043 16.3956 84.4153 16.0385 84.8371 15.7663L84.5117 15.2621C83.9959 15.595 83.608 16.0391 83.3537 16.5902L83.8985 16.8416ZM84.8387 15.7652C85.2451 15.4992 85.7881 15.354 86.4897 15.354V14.754C85.7084 14.754 85.0411 14.9156 84.5101 15.2632L84.8387 15.7652ZM86.4897 15.354C87.1127 15.354 87.6433 15.4815 88.0908 15.7263L88.3787 15.1999C87.829 14.8992 87.1962 14.754 86.4897 14.754V15.354ZM88.0925 15.7272C88.5322 15.964 88.8783 16.3255 89.1302 16.8253L89.666 16.5553C89.3639 15.9557 88.9344 15.4991 88.377 15.1989L88.0925 15.7272ZM89.1306 16.8262C89.3799 17.317 89.5136 17.957 89.5136 18.7614H90.1136C90.1136 17.8953 89.9703 17.1546 89.6656 16.5545L89.1306 16.8262ZM89.5136 18.7614V25H90.1136V18.7614H89.5136ZM89.8136 24.7H88.305V25.3H89.8136V24.7ZM88.605 25V18.8636H88.005V25H88.605ZM88.605 18.8636C88.605 18.0408 88.3905 17.3582 87.9238 16.8567L87.4846 17.2655C87.819 17.6248 88.005 18.1439 88.005 18.8636H88.605ZM87.9248 16.8578C87.4571 16.3502 86.8211 16.1091 86.055 16.1091V16.7091C86.6867 16.7091 87.1502 16.9026 87.4836 17.2644L87.9248 16.8578ZM86.055 16.1091C85.5287 16.1091 85.0476 16.2236 84.6192 16.4595L84.9085 16.9851C85.2387 16.8033 85.6183 16.7091 86.055 16.7091V16.1091ZM84.6179 16.4602C84.19 16.6984 83.8544 17.0459 83.6117 17.4933L84.139 17.7794C84.331 17.4257 84.5877 17.1638 84.9098 16.9844L84.6179 16.4602ZM83.6117 17.4933C83.3652 17.9475 83.2494 18.4852 83.2494 19.0938H83.8494C83.8494 18.5603 83.9508 18.1263 84.139 17.7794L83.6117 17.4933Z" fill="black"/>
<g clip-path="url(#clip0_43_2)">
<mask id="path-4-inside-1_43_2" fill="white">
<path d="M22 17.6915C19.1401 17.6915 16.8132 15.3133 16.8132 12.3903C16.8132 9.46726 19.1401 7.08923 22 7.08923C24.8601 7.08923 27.1868 9.46726 27.1868 12.3905C27.1868 15.3138 24.8601 17.6915 22 17.6915ZM22 8.01373C19.639 8.01373 17.7178 9.97712 17.7178 12.3905C17.7178 14.8039 19.6387 16.7673 22 16.7673C24.3612 16.7673 26.2822 14.8039 26.2822 12.3905C26.2822 9.97712 24.3612 8.01373 22 8.01373Z"/>
</mask>
<path d="M22 17.6915C19.1401 17.6915 16.8132 15.3133 16.8132 12.3903C16.8132 9.46726 19.1401 7.08923 22 7.08923C24.8601 7.08923 27.1868 9.46726 27.1868 12.3905C27.1868 15.3138 24.8601 17.6915 22 17.6915ZM22 8.01373C19.639 8.01373 17.7178 9.97712 17.7178 12.3905C17.7178 14.8039 19.6387 16.7673 22 16.7673C24.3612 16.7673 26.2822 14.8039 26.2822 12.3905C26.2822 9.97712 24.3612 8.01373 22 8.01373Z" fill="black"/>
<path d="M26.2822 12.3905H14.2822H26.2822ZM22 5.69155C26.0132 5.69155 28.8132 8.93427 28.8132 12.3903H4.81323C4.81323 21.6923 12.267 29.6915 22 29.6915V5.69155ZM28.8132 12.3903C28.8132 15.847 26.0126 19.0892 22 19.0892V-4.91077C12.2677 -4.91077 4.81323 3.08755 4.81323 12.3903H28.8132ZM22 19.0892C17.987 19.0892 15.1868 15.8463 15.1868 12.3905H39.1868C39.1868 3.08824 31.7332 -4.91077 22 -4.91077V19.0892ZM15.1868 12.3905C15.1868 8.93404 17.9877 5.69155 22 5.69155V29.6915C31.7325 29.6915 39.1868 21.6935 39.1868 12.3905H15.1868ZM22 -3.98627C12.7663 -3.98627 5.71776 3.59768 5.71776 12.3905H29.7178C29.7178 16.3566 26.5117 20.0137 22 20.0137V-3.98627ZM5.71776 12.3905C5.71776 21.1829 12.7656 28.7673 22 28.7673V4.76729C26.5118 4.76729 29.7178 8.42487 29.7178 12.3905H5.71776ZM22 28.7673C31.2344 28.7673 38.2822 21.1829 38.2822 12.3905H14.2822C14.2822 8.42487 17.4881 4.76729 22 4.76729V28.7673ZM38.2822 12.3905C38.2822 3.59809 31.2344 -3.98627 22 -3.98627V20.0137C17.4881 20.0137 14.2822 16.3561 14.2822 12.3905H38.2822Z" fill="black" mask="url(#path-4-inside-1_43_2)"/>
<mask id="path-6-inside-2_43_2" fill="white">
<path d="M21.998 29.9108C18.734 29.9108 15.6584 28.6221 13.3378 26.282C13.2503 26.1937 13.2017 26.0728 13.2033 25.9471C13.2202 24.5772 13.5303 23.2654 14.1248 22.048C15.6251 18.9766 18.642 17.0685 21.998 17.0685C26.7894 17.0685 30.7366 21.0514 30.7967 25.9471C30.7983 26.0728 30.7497 26.1937 30.6619 26.282C28.3416 28.6221 25.2646 29.9108 21.998 29.9108ZM14.1126 25.762C16.2459 27.843 19.0384 28.9864 21.9982 28.9864C24.9607 28.9864 27.7546 27.843 29.8877 25.762C29.7323 21.4603 26.2329 17.993 21.9982 17.993C18.9873 17.993 16.2805 19.7049 14.9343 22.461C14.4294 23.4944 14.1535 24.604 14.1126 25.762Z"/>
</mask>
<path d="M21.998 29.9108C18.734 29.9108 15.6584 28.6221 13.3378 26.282C13.2503 26.1937 13.2017 26.0728 13.2033 25.9471C13.2202 24.5772 13.5303 23.2654 14.1248 22.048C15.6251 18.9766 18.642 17.0685 21.998 17.0685C26.7894 17.0685 30.7366 21.0514 30.7967 25.9471C30.7983 26.0728 30.7497 26.1937 30.6619 26.282C28.3416 28.6221 25.2646 29.9108 21.998 29.9108ZM14.1126 25.762C16.2459 27.843 19.0384 28.9864 21.9982 28.9864C24.9607 28.9864 27.7546 27.843 29.8877 25.762C29.7323 21.4603 26.2329 17.993 21.9982 17.993C18.9873 17.993 16.2805 19.7049 14.9343 22.461C14.4294 23.4944 14.1535 24.604 14.1126 25.762Z" fill="black"/>
<path d="M13.3378 26.282L4.81515 34.7297L4.817 34.7316L13.3378 26.282ZM13.2033 25.9471L25.2023 26.0981L25.2024 26.0956L13.2033 25.9471ZM14.1248 22.048L3.3425 16.7809L3.34192 16.7821L14.1248 22.048ZM30.7967 25.9471L18.7976 26.0945L18.7977 26.0981L30.7967 25.9471ZM30.6619 26.282L22.1502 17.8233L22.1407 17.8328L30.6619 26.282ZM14.1126 25.762L2.12005 25.338L1.93248 30.6443L5.73319 34.3518L14.1126 25.762ZM29.8877 25.762L38.2675 34.3514L42.0716 30.6401L41.8798 25.3289L29.8877 25.762ZM14.9343 22.461L25.7159 27.7295L25.7169 27.7275L14.9343 22.461ZM21.998 17.9108C21.973 17.9108 21.9603 17.9085 21.9572 17.9079C21.9538 17.9072 21.9528 17.9068 21.9518 17.9063C21.9507 17.9059 21.9438 17.903 21.9305 17.894C21.9174 17.8851 21.8926 17.8666 21.8587 17.8324L4.817 34.7316C9.3663 39.3192 15.4993 41.9108 21.998 41.9108V17.9108ZM21.8605 17.8343C24.0627 20.056 25.2408 23.0436 25.2023 26.0981L1.20424 25.796C1.16261 29.102 2.43797 32.3314 4.81515 34.7297L21.8605 17.8343ZM25.2024 26.0956C25.1976 26.4798 25.1011 26.9179 24.9076 27.314L3.34192 16.7821C1.95949 19.6128 1.24288 22.6747 1.2042 25.7985L25.2024 26.0956ZM24.907 27.3152C24.4428 28.2656 23.3354 29.0685 21.998 29.0685V5.06848C13.9485 5.06848 6.80752 9.68771 3.3425 16.7809L24.907 27.3152ZM21.998 29.0685C19.9811 29.0685 18.8152 27.5272 18.7976 26.0945L42.7958 25.7997C42.6579 14.5756 33.5978 5.06848 21.998 5.06848V29.0685ZM18.7977 26.0981C18.7592 23.0421 19.9387 20.0486 22.1502 17.8233L39.1737 34.7407C41.5606 32.3388 42.8374 29.1035 42.7958 25.796L18.7977 26.0981ZM22.1407 17.8328C22.1073 17.8665 22.083 17.8847 22.0701 17.8934C22.0571 17.9022 22.0502 17.9051 22.0489 17.9056C22.0477 17.9061 22.0461 17.9067 22.042 17.9076C22.038 17.9084 22.0243 17.9108 21.998 17.9108V41.9108C28.4964 41.9108 34.6318 39.3213 39.1832 34.7311L22.1407 17.8328ZM5.73319 34.3518C10.0858 38.5977 15.8767 40.9864 21.9982 40.9864V16.9864C22.0728 16.9864 22.1781 17.0026 22.2885 17.0478C22.3983 17.0927 22.4659 17.1467 22.4919 17.1721L5.73319 34.3518ZM21.9982 40.9864C28.1192 40.9864 33.9127 38.5999 38.2675 34.3514L21.5078 17.1725C21.5351 17.1459 21.6033 17.0917 21.7128 17.047C21.8227 17.002 21.9264 16.9864 21.9982 16.9864V40.9864ZM41.8798 25.3289C41.5005 14.8252 32.9417 5.99297 21.9982 5.99297V29.993C19.5242 29.993 17.9641 28.0954 17.8955 26.195L41.8798 25.3289ZM21.9982 5.99297C14.2937 5.99297 7.46248 10.4161 4.15171 17.1946L25.7169 27.7275C25.0985 28.9937 23.6808 29.993 21.9982 29.993V5.99297ZM4.1527 17.1926C2.90158 19.7529 2.21984 22.5149 2.12005 25.338L26.1051 26.1859C26.0871 26.6931 25.9572 27.2359 25.7159 27.7295L4.1527 17.1926Z" fill="black" mask="url(#path-6-inside-2_43_2)"/>
</g>
<defs>
<clipPath id="clip0_43_2">
<rect width="18" height="23" fill="white" transform="translate(13 7)"/>
</clipPath>
</defs>
</svg>
