<svg width="106" height="63" viewBox="0 0 106 63" fill="none" xmlns="http://www.w3.org/2000/svg">
<path d="M4 32.9432C4 32.9432 15.9557 25.8868 24.9225 36.9754C33.8893 48.0639 36.8782 62.1766 45.845 61.6726C54.8117 61.1686 62.8818 36.7234 62.8818 36.7234C62.8818 36.7234 50.0294 59.1525 40.4649 46.0478C31.8628 34.2587 33.2915 25.3828 23.7269 24.3748C14.1623 23.3667 4 32.9432 4 32.9432Z" fill="#A4907C" stroke="#A4907C" stroke-miterlimit="10"/>
<path d="M102.136 32.9432C102.136 32.9432 90.1806 25.8868 81.2139 36.9754C72.2471 48.0639 69.2582 62.1766 60.2914 61.6726C51.3246 61.1686 43.2545 36.7234 43.2545 36.7234C43.2545 36.7234 56.1069 59.1525 65.6715 46.0478C74.2736 34.2587 72.8449 25.3828 82.4094 24.3748C91.974 23.3667 102.136 32.9432 102.136 32.9432Z" fill="#A4907C" stroke="#A4907C" stroke-miterlimit="10"/>
<path d="M56.4392 12.1501C56.3456 14.9099 56.2407 14.4148 54.5264 16.5848C53.3922 18.1119 53.1855 19.8353 54.1467 21.4007C54.3192 21.6834 54.5258 21.9438 54.7619 22.1763C55.009 22.355 55.3099 22.4443 55.6149 22.4295C55.9199 22.4147 56.2107 22.2967 56.4392 22.0949C57.7213 20.485 58.3446 18.4515 58.1838 16.4028L56.4392 12.1501Z" fill="#A4907C"/>
<path d="M47.9566 24.3004C47.9907 27.1306 50.3793 26.6265 52.485 29.2286C53.8245 30.8821 53.8595 33.6409 52.7243 35.3358C52.5209 35.6406 52.2789 35.9224 52.0035 36.1756C51.7104 36.3685 51.3542 36.4649 50.9933 36.4489C50.6324 36.4329 50.2881 36.3055 50.0169 36.0874C48.5044 34.3415 47.7686 32.1388 47.9566 29.9192L47.9566 24.3004Z" fill="#A4907C"/>
<path d="M48.306 7.47705C47.9879 10.201 50.7428 9.13642 52.6394 11.7055C53.2517 12.4515 53.5647 13.3398 53.5334 14.2431C53.5021 15.1463 53.1282 16.0182 52.4653 16.7336C52.214 17.0232 51.9218 17.2867 51.595 17.5183C51.0609 17.8981 49.8305 17.8082 49.5124 17.3783C48.9882 16.7084 48.5902 15.9841 48.3241 15.2301C47.4589 12.7778 48.1742 10.0742 48.306 7.47705Z" fill="#A4907C"/>
<path d="M57.8307 17.7579C57.7185 20.6354 56.3725 23.4113 53.9883 25.6822C52.4002 27.2751 52.1109 29.0727 53.4567 30.7055C53.6966 30.9995 53.986 31.2697 54.3181 31.5094C54.6633 31.6964 55.0842 31.7905 55.5112 31.776C55.9383 31.7614 56.3458 31.6392 56.6666 31.4295C58.4592 29.7473 59.3314 27.6256 59.1093 25.4875L57.8307 17.7579Z" fill="#A4907C"/>
<path d="M55.3156 -2.16495e-06C55.5134 1.89392 54.3957 4.62399 53.1805 6.22383C52.779 6.72862 52.5769 7.32794 52.6031 7.93584C52.6294 8.54375 52.8826 9.12901 53.3265 9.60773C53.5035 9.79966 53.7078 9.97239 53.9348 10.122C54.144 10.2412 54.3954 10.2961 54.6467 10.2774C54.8981 10.2586 55.1342 10.1675 55.3156 10.0192C56.2242 8.8233 56.545 7.3749 56.2098 5.98212L55.3156 -2.16495e-06Z" fill="#A4907C"/>
<path d="M47.9565 15.8887C47.9911 18.6701 50.2062 18.3389 52.3462 20.9009C53.7075 22.5289 53.9556 24.3661 52.8019 26.0043C52.5981 26.3062 52.3519 26.584 52.0693 26.8311C51.7721 27.0218 51.4105 27.1176 51.0437 27.1028C50.677 27.0879 50.3267 26.9634 50.0504 26.7495C48.5148 25.0298 47.7673 22.8616 47.9566 20.6763L47.9565 15.8887Z" fill="#A4907C"/>
<path d="M50.0013 -2.30129e-06C50.0186 1.66452 50.9362 2.23146 52.0062 3.76465C52.6869 4.73893 52.8109 5.83843 52.2341 6.81882C52.1321 6.99944 52.0091 7.16569 51.8678 7.3136C51.7191 7.42773 51.5384 7.48504 51.355 7.47616C51.1716 7.46728 50.9965 7.39274 50.8583 7.26473C50.0905 6.23557 49.7168 4.93803 49.8114 3.63028L50.0013 -2.30129e-06Z" fill="#A4907C"/>
</svg>
