<svg width="62" height="62" viewBox="0 0 62 62" fill="none" xmlns="http://www.w3.org/2000/svg">
<path fill-rule="evenodd" clip-rule="evenodd" d="M21.9583 7.75008H24.5417V5.16675H16.7917V7.75008H19.375V10.3334H16.5712C16.0393 8.82838 14.6038 7.75008 12.9167 7.75008C10.7766 7.75008 9.04166 9.48498 9.04166 11.6251C9.04166 13.7652 10.7766 15.5001 12.9167 15.5001C14.6038 15.5001 16.0393 14.4218 16.5712 12.9167H19.375V15.6073C15.7096 16.2221 12.9167 19.41 12.9167 23.2501V55.5418C12.9167 56.2551 13.4949 56.8334 14.2083 56.8334H27.125C27.8384 56.8334 28.4167 56.2551 28.4167 55.5418V23.2501C28.4167 19.41 25.6237 16.2221 21.9583 15.6073V12.9167H28.4167V10.3334H21.9583V7.75008ZM20.6667 18.0834C17.8132 18.0834 15.5 20.3967 15.5 23.2501V25.8334H25.8333V23.2501C25.8333 20.3967 23.5201 18.0834 20.6667 18.0834ZM15.5 54.2501V28.4167H25.8333V54.2501H15.5ZM11.625 11.6251C11.625 10.9117 12.2033 10.3334 12.9167 10.3334C13.63 10.3334 14.2083 10.9117 14.2083 11.6251C14.2083 12.3384 13.63 12.9167 12.9167 12.9167C12.2033 12.9167 11.625 12.3384 11.625 11.6251ZM33.5833 27.1251C33.5833 24.2717 35.8966 21.9584 38.75 21.9584C41.6034 21.9584 43.9167 24.2717 43.9167 27.1251V34.8751C43.9167 37.7285 41.6034 40.0418 38.75 40.0418C35.8966 40.0418 33.5833 37.7285 33.5833 34.8751V27.1251ZM38.75 24.5417C37.3232 24.5417 36.1667 25.6983 36.1667 27.1251V34.8751C36.1667 36.3019 37.3232 37.4584 38.75 37.4584C40.1768 37.4584 41.3333 36.3019 41.3333 34.8751V27.1251C41.3333 25.6983 40.1768 24.5417 38.75 24.5417ZM49.0833 33.5834H45.2083V31.0001H49.0833C51.2235 31.0001 52.9583 32.7349 52.9583 34.8751C52.9583 37.0152 51.2235 38.7501 49.0833 38.7501C48.3699 38.7501 47.7917 39.3284 47.7917 40.0418V41.3334H52.9583V43.9168H46.5C45.7866 43.9168 45.2083 43.3385 45.2083 42.6251V40.0418C45.2083 37.9016 46.9432 36.1667 49.0833 36.1667C49.7967 36.1667 50.375 35.5885 50.375 34.8751C50.375 34.1617 49.7967 33.5834 49.0833 33.5834Z" fill="white"/>
</svg>
